<svg xmlns="http://www.w3.org/2000/svg" version="1.1" xmlns:xlink="http://www.w3.org/1999/xlink" width="2000" height="477" viewBox="0 0 2000 477"><svg xml:space="preserve" width="2000" height="477" data-version="2" data-id="lg_eFEeYpH9qssW6Zk7kV" viewBox="0 0 571 477" x="0" y="0"><rect width="100%" height="100%" fill="transparent"></rect><path fill="#a9dadd" d="m305.411 170.751-1.985 1.146a1.845.577-27.892 0 0 .917.811l1.985-1.146c66.331-38.295 135.875-55.668 155.03-38.73l.573.506a1.845.577-27.892 0 0 3.176-1.833l-.573-.507c-19.66-17.385-91.042.448-159.123 39.753m-.156 130.675 2.567-1.732a.929 2.516 60.016 0 0-1.726-1.111l-2.567 1.732c-85.796 57.868-184.917 86.057-220.963 62.842l-1.079-.695a.929 2.516 60.016 0 0-4.108 2.77l1.079.696c36.998 23.828 138.737-5.107 226.796-64.502"></path><path fill="#1d3557" d="M455.479 110.409c60.737-.437 33.905 56.669-59.824 127.3-93.73 70.63-219.4 128.446-280.14 128.882s-33.9-56.669 59.83-127.3c93.73-70.63 219.396-128.446 280.134-128.882M129.204 356.276c52.973-.38 166.186-53.525 252.367-118.466s113.196-117.466 60.219-117.086c-52.97.38-166.184 53.524-252.364 118.466S76.234 356.656 129.204 356.276" paint-order="stroke"></path><path fill="#a9dadd" fill-rule="evenodd" d="M131.83 327.504c-2.25.322-4.336-.279-6.434-1.234 3.65 3.748 2.76 7.943 1.4 12.327 3.155-3.77 5.813-4.29 11.767-2.322-3.817-3.764-3.092-7.824-1.148-12.188-1.574 1.906-3.326 3.092-5.585 3.417m-10.147 4.282c-1.28.937-2.554 1.396-4.008 1.243-1.45-.155-2.65-.858-3.802-1.782 1.676 2.904.46 5.37-1.075 7.879 2.554-1.846 4.288-1.749 7.675.412-1.776-2.94-.686-5.348 1.21-7.752m-2.35-13.776c-1.251-.343-2.207-1.133-3.087-2.11 1.057 2.792-.364 4.785-2.072 6.77 2.508-1.255 4.018-.921 6.685 1.463-1.14-2.84.163-4.799 2.174-6.64-1.258.64-2.445.861-3.7.517"></path><circle r="50" fill="#a9dadd" transform="rotate(-2.87 2088.72 -8578.53)scale(.0797)"></circle><circle r="50" fill="#a9dadd" transform="matrix(.1173 -.0061 .0064 .123 471.26 99.32)"></circle><circle r="50" fill="#a9dadd" transform="rotate(-3.35 2172.96 -8271.55)scale(.0584)"></circle><g transform="translate(282.56 233.08)"><filter id="a" width="145.48%" height="151.68%" x="-22.74%" y="-25.84%"><feGaussianBlur in="SourceAlpha"></feGaussianBlur><feOffset dx="10" dy="10" result="oBlur"></feOffset><feFlood flood-color="#1D3557" flood-opacity="1"></feFlood><feComposite in2="oBlur" operator="in"></feComposite><feMerge><feMergeNode></feMergeNode><feMergeNode in="SourceGraphic"></feMergeNode></feMerge></filter><g filter="url(#a)"><path fill="none" stroke="#fffefe" stroke-width="15" d="M-1.01 11.615q1.33.19 3.71.62t5.19 1.47q2.81 1.05 5.71 2.91 2.91 1.86 5.29 5 2.38 3.14 3.85 7.71 1.48 4.57 1.48 10.95 0 6.95-2.57 13.62-2.57 6.66-7.14 11.85-4.57 5.19-10.86 8.38-6.28 3.19-13.61 3.19-7.62 0-13.19-2.33-5.57-2.34-9.14-6.57-3.57-4.24-5.29-10.19-1.71-5.95-1.71-13.19 0-7.71 2.57-19.9 2.57-12.19 9.52-27.99-10.95 4.47-21.66 8.04-10.71 3.57-21.37 6.72-5.62 8.66-12.48 16.99-6.85 8.33-14.33 15.66-7.47 7.34-15.37 13.48-7.91 6.14-15.62 10.61-7.71 4.48-15 6.95-7.28 2.48-13.56 2.48-5.62 0-9.14-1.62-3.53-1.62-5.53-3.95-2-2.33-2.76-5.09-.76-2.77-.76-5.05 0-2.86 1.38-6.33 1.38-3.48 4.24-7.1 2.85-3.61 7.23-7.09 4.38-3.47 10.29-6.52 9.14-4.67 18.18-8.38 9.05-3.71 17.95-6.81 8.9-3.09 17.66-5.76 8.76-2.66 17.52-5.24 4.67-8.18 8.62-16.61 3.95-8.43 6.86-16.43 2.9-7.99 4.57-15.28 1.66-7.28 1.66-13.28 0-4.57-1.47-8.38-1.48-3.81-4.19-6.52-2.72-2.71-6.62-4.24-3.9-1.52-8.76-1.52-8.95 0-17.09 2.14t-15.19 5.76q-7.04 3.62-12.71 8.48-5.66 4.85-9.71 10.28-4.05 5.43-6.24 11.09-2.19 5.67-2.19 11t2.24 8.81q2.24 3.47 5.66 5.52 3.43 2.05 7.38 2.86 3.96.8 7.38.8 3.91 0 7.48-.66 3.57-.67 6.28-1.43 2.72-.76 4.38-1.48l1.67-.71 2.09 4.57q-.47.29-2.71 1.09-2.24.81-5.86 1.77-3.61.95-8.42 1.66-4.81.72-10.43.72-5.81 0-11-1.34-5.19-1.33-9.04-4.19-3.86-2.85-6.1-7.37-2.23-4.53-2.23-11 0-7.33 3.38-14.09t9.09-12.72q5.71-5.95 13.19-10.8 7.47-4.86 15.71-8.38 8.23-3.52 16.66-5.43 8.43-1.9 16.04-1.9 6.95 0 12.72 1.9 5.76 1.91 9.94 5.67 4.19 3.76 6.53 9.38 2.33 5.61 2.33 13.04 0 6.28-1.52 13.43-1.53 7.14-4 14.18-2.48 7.05-5.62 13.62-3.14 6.57-6.47 11.8 10.66-3.14 21.04-6.61 10.38-3.48 20.94-8.05 10.57-20.56 20.1-33.85 9.52-13.28 17.66-20.94 8.14-7.67 14.8-10.62 6.67-2.95 11.52-2.95 5.62 0 8.76 3.04 3.15 3.05 3.15 8.48 0 6.19-4.62 13.19-4.62 6.99-12.52 13.56-11.81 9.81-23.43 17.14-11.61 7.33-23.42 13.05-5.43 11.52-8.95 20.75-3.52 9.24-5.57 16.57-2.05 7.33-2.9 13.05-.86 5.71-.86 10.09 0 5.52 1.52 9.57 1.53 4.04 4.24 6.71t6.43 3.95q3.71 1.29 8.19 1.29 5.9 0 11.18-2.53 5.29-2.52 9.29-6.9 4-4.38 6.33-10.23 2.33-5.86 2.33-12.53 0-5.71-1.38-9.71-1.38-4-3.52-6.61-2.14-2.62-4.71-4.1-2.58-1.47-4.81-2.19-2.24-.71-3.91-.86-1.66-.14-2.04-.14Zm-151.3 59.7q7.81 0 16.57-4.19 8.76-4.19 17.66-11.57t17.52-17.47q8.62-10.09 16.04-21.9l-5.9 1.71q-6.09 1.81-13.81 4.43-7.71 2.62-15.71 5.95-7.99 3.34-15.66 7.29-7.66 3.95-13.61 8.42-5.96 4.48-9.57 9.48-3.62 5-3.62 10.42 0 3.62 2.81 5.53 2.81 1.9 7.28 1.9Zm143.77-88.36q10-5.14 20-11.66 10-6.53 20.28-15 4.19-3.43 7.09-6.76 2.91-3.33 4.72-6.28 1.81-2.96 2.62-5.48.81-2.52.81-4.43 0-2.76-1.67-4.66-1.67-1.91-5.29-1.91-3.9 0-8.04 2.24-4.14 2.24-8.43 6.19-4.28 3.95-8.52 9.33-4.24 5.38-8.33 11.62-4.09 6.23-7.95 13.09-3.86 6.85-7.29 13.71Zm119.33-25.33-33.8 109.5h-35.9l50.94-138.63h22.76Zm28 109.5-33.9-109.5-4.38-29.13h23.04l51.23 138.63Zm-1.34-51.7v25.8H66.33v-25.8Z" paint-order="stroke"></path><path fill="#6969e7" d="M-1.01 11.615q1.33.19 3.71.62t5.19 1.47q2.81 1.05 5.71 2.91 2.91 1.86 5.29 5 2.38 3.14 3.85 7.71 1.48 4.57 1.48 10.95 0 6.95-2.57 13.62-2.57 6.66-7.14 11.85-4.57 5.19-10.86 8.38-6.28 3.19-13.61 3.19-7.62 0-13.19-2.33-5.57-2.34-9.14-6.57-3.57-4.24-5.29-10.19-1.71-5.95-1.71-13.19 0-7.71 2.57-19.9 2.57-12.19 9.52-27.99-10.95 4.47-21.66 8.04-10.71 3.57-21.37 6.72-5.62 8.66-12.48 16.99-6.85 8.33-14.33 15.66-7.47 7.34-15.37 13.48-7.91 6.14-15.62 10.61-7.71 4.48-15 6.95-7.28 2.48-13.56 2.48-5.62 0-9.14-1.62-3.53-1.62-5.53-3.95-2-2.33-2.76-5.09-.76-2.77-.76-5.05 0-2.86 1.38-6.33 1.38-3.48 4.24-7.1 2.85-3.61 7.23-7.09 4.38-3.47 10.29-6.52 9.14-4.67 18.18-8.38 9.05-3.71 17.95-6.81 8.9-3.09 17.66-5.76 8.76-2.66 17.52-5.24 4.67-8.18 8.62-16.61 3.95-8.43 6.86-16.43 2.9-7.99 4.57-15.28 1.66-7.28 1.66-13.28 0-4.57-1.47-8.38-1.48-3.81-4.19-6.52-2.72-2.71-6.62-4.24-3.9-1.52-8.76-1.52-8.95 0-17.09 2.14t-15.19 5.76q-7.04 3.62-12.71 8.48-5.66 4.85-9.71 10.28-4.05 5.43-6.24 11.09-2.19 5.67-2.19 11t2.24 8.81q2.24 3.47 5.66 5.52 3.43 2.05 7.38 2.86 3.96.8 7.38.8 3.91 0 7.48-.66 3.57-.67 6.28-1.43 2.72-.76 4.38-1.48l1.67-.71 2.09 4.57q-.47.29-2.71 1.09-2.24.81-5.86 1.77-3.61.95-8.42 1.66-4.81.72-10.43.72-5.81 0-11-1.34-5.19-1.33-9.04-4.19-3.86-2.85-6.1-7.37-2.23-4.53-2.23-11 0-7.33 3.38-14.09t9.09-12.72q5.71-5.95 13.19-10.8 7.47-4.86 15.71-8.38 8.23-3.52 16.66-5.43 8.43-1.9 16.04-1.9 6.95 0 12.72 1.9 5.76 1.91 9.94 5.67 4.19 3.76 6.53 9.38 2.33 5.61 2.33 13.04 0 6.28-1.52 13.43-1.53 7.14-4 14.18-2.48 7.05-5.62 13.62-3.14 6.57-6.47 11.8 10.66-3.14 21.04-6.61 10.38-3.48 20.94-8.05 10.57-20.56 20.1-33.85 9.52-13.28 17.66-20.94 8.14-7.67 14.8-10.62 6.67-2.95 11.52-2.95 5.62 0 8.76 3.04 3.15 3.05 3.15 8.48 0 6.19-4.62 13.19-4.62 6.99-12.52 13.56-11.81 9.81-23.43 17.14-11.61 7.33-23.42 13.05-5.43 11.52-8.95 20.75-3.52 9.24-5.57 16.57-2.05 7.33-2.9 13.05-.86 5.71-.86 10.09 0 5.52 1.52 9.57 1.53 4.04 4.24 6.71t6.43 3.95q3.71 1.29 8.19 1.29 5.9 0 11.18-2.53 5.29-2.52 9.29-6.9 4-4.38 6.33-10.23 2.33-5.86 2.33-12.53 0-5.71-1.38-9.71-1.38-4-3.52-6.61-2.14-2.62-4.71-4.1-2.58-1.47-4.81-2.19-2.24-.71-3.91-.86-1.66-.14-2.04-.14Zm-151.3 59.7q7.81 0 16.57-4.19 8.76-4.19 17.66-11.57t17.52-17.47q8.62-10.09 16.04-21.9l-5.9 1.71q-6.09 1.81-13.81 4.43-7.71 2.62-15.71 5.95-7.99 3.34-15.66 7.29-7.66 3.95-13.61 8.42-5.96 4.48-9.57 9.48-3.62 5-3.62 10.42 0 3.62 2.81 5.53 2.81 1.9 7.28 1.9m143.77-88.36q10-5.14 20-11.66 10-6.53 20.28-15 4.19-3.43 7.09-6.76 2.91-3.33 4.72-6.28 1.81-2.96 2.62-5.48.81-2.52.81-4.43 0-2.76-1.67-4.66-1.67-1.91-5.29-1.91-3.9 0-8.04 2.24-4.14 2.24-8.43 6.19-4.28 3.95-8.52 9.33-4.24 5.38-8.33 11.62-4.09 6.23-7.95 13.09-3.86 6.85-7.29 13.71" paint-order="stroke"></path><rect width="226.71" height="156.15" x="-113.36" y="-78.08" fill="none" rx="0" ry="0" transform="translate(-60.92 .5)"></rect><path fill="#6969e7" d="m110.79-42.375-33.8 109.5h-35.9l50.94-138.63h22.76Zm28 109.5-33.9-109.5-4.38-29.13h23.04l51.23 138.63Zm-1.34-51.7v25.8H66.33v-25.8Z" paint-order="stroke"></path><rect width="133.69" height="138.63" x="-66.84" y="-69.31" fill="none" rx="0" ry="0" transform="translate(108.44 -1.69)"></rect></g></g></svg></svg>